<mxfile host="app.diagrams.net" modified="2021-09-23T06:23:47.762Z" agent="5.0 (Windows NT 10.0; WOW64) AppleWebKit/537.36 (KHTML, like Gecko) Chrome/70.0.3538.25 Safari/537.36 Core/1.70.3870.400 QQBrowser/10.8.4405.400" etag="oFi4lIN45CW7I5kXNRXh" version="15.3.0" type="github">
  <diagram id="n2clSpT4y_0yMKj_eVi8" name="Page-1">
    <mxGraphModel dx="1422" dy="809" grid="1" gridSize="10" guides="1" tooltips="1" connect="1" arrows="1" fold="1" page="1" pageScale="1" pageWidth="827" pageHeight="1169" math="0" shadow="0">
      <root>
        <mxCell id="0" />
        <mxCell id="1" parent="0" />
        <mxCell id="bYny6pc4v_U9MV29wEx--1" value="Corpus" style="shape=document;whiteSpace=wrap;html=1;boundedLbl=1;fontSize=13;strokeWidth=2;" parent="1" vertex="1">
          <mxGeometry x="400" y="110" width="120" height="80" as="geometry" />
        </mxCell>
        <mxCell id="bYny6pc4v_U9MV29wEx--7" value="" style="edgeStyle=orthogonalEdgeStyle;rounded=0;orthogonalLoop=1;jettySize=auto;html=1;exitX=0.5;exitY=1;exitDx=0;exitDy=0;exitPerimeter=0;entryX=0.5;entryY=0;entryDx=0;entryDy=0;strokeWidth=2;" parent="1" target="bYny6pc4v_U9MV29wEx--3" edge="1">
          <mxGeometry relative="1" as="geometry">
            <mxPoint x="250" y="190" as="sourcePoint" />
            <mxPoint x="360" y="260" as="targetPoint" />
          </mxGeometry>
        </mxCell>
        <mxCell id="bYny6pc4v_U9MV29wEx--3" value="Relation Selecting" style="rounded=1;whiteSpace=wrap;html=1;strokeWidth=2;fontSize=13;" parent="1" vertex="1">
          <mxGeometry x="190" y="240" width="120" height="60" as="geometry" />
        </mxCell>
        <mxCell id="bYny6pc4v_U9MV29wEx--4" value="freepal" style="shape=document;whiteSpace=wrap;html=1;boundedLbl=1;strokeWidth=2;fontSize=13;" parent="1" vertex="1">
          <mxGeometry x="10" y="340" width="120" height="80" as="geometry" />
        </mxCell>
        <mxCell id="bYny6pc4v_U9MV29wEx--6" value="Relation Mapping" style="rounded=1;whiteSpace=wrap;html=1;strokeWidth=2;fontSize=13;" parent="1" vertex="1">
          <mxGeometry x="190" y="340" width="120" height="60" as="geometry" />
        </mxCell>
        <mxCell id="bYny6pc4v_U9MV29wEx--10" value="" style="endArrow=classic;html=1;exitX=0.5;exitY=1;exitDx=0;exitDy=0;entryX=0.5;entryY=0;entryDx=0;entryDy=0;strokeWidth=2;" parent="1" source="bYny6pc4v_U9MV29wEx--3" target="bYny6pc4v_U9MV29wEx--6" edge="1">
          <mxGeometry width="50" height="50" relative="1" as="geometry">
            <mxPoint x="390" y="440" as="sourcePoint" />
            <mxPoint x="440" y="390" as="targetPoint" />
          </mxGeometry>
        </mxCell>
        <mxCell id="bYny6pc4v_U9MV29wEx--11" value="" style="endArrow=classic;html=1;strokeWidth=2;entryX=0;entryY=0.5;entryDx=0;entryDy=0;" parent="1" edge="1" target="bYny6pc4v_U9MV29wEx--6">
          <mxGeometry width="50" height="50" relative="1" as="geometry">
            <mxPoint x="130" y="370" as="sourcePoint" />
            <mxPoint x="190" y="362" as="targetPoint" />
          </mxGeometry>
        </mxCell>
        <mxCell id="bYny6pc4v_U9MV29wEx--12" value="" style="shape=image;imageAspect=0;aspect=fixed;verticalLabelPosition=bottom;verticalAlign=top;image=data:image/png,iVBORw0KGgoAAAANSUhEUgAAALYAAACKCAYAAAFwT4BEAAAAAXNSR0IArs4c6QAAAARnQU1BAACxjwv8YQUAAAAJcEhZcwAADsMAAA7DAcdvqGQAADcdSURBVHhe7Z0HnFfVte9veU+aBcH47gugJppyc28SW7wmiiK2SGKLJjaQNgwodsWCvcdGH6ZSVIbesVCNNKXYHQaQXkSkzcDUf5n/euu7zn//OfNnhur15eazF6w55+y99tpr//ba5Zz/Pvv8k/w3Ukp5dXmFRKqrJVJRLlK2U6r1GKmqkITG7Y6XSXW0SiRWo/Fx2VMVlVi0QiQRlfLKiJRVRkVqEnoZl0S8OlColFKe1/IHsnrseMltdbyM/u1Zkt2iqeS2PN7ifpWTIVeOeNTOG3crUM6TvHkr9CohTTLy7Bpas2uznJHT3c4hr9zivHKv/O9duSQS2nVoH6EJtJuwaz3T8+CYiCtreKImpkfCkjKp+ITEa1S+hoiAUso7d+5sgjt27JD58+dLYWGhlJeXW9gDDzwg7du3l06dOpkcFI1GZfv27XLLLbfIrbfeKsuXL5cOHTpYnKOU8uLiYunevbtceumlxrm5uab8kksusfjLL79crrjiCjtv27atXHzxxXLZZZeppTVyxx13WGYQ1472wqKEckf5+flSVlZmll9zzTWWIcpRWlJSIgsXLpRIJGKyPXr0sHjIGQPVUv5d0/ejPB5LSFXVbhuJEuo1HGOMRtGIxBM1sjtWIbsrEjYKJaRayvS4W2HhOlJdI6WVJaoFjwn0Qaa8Jhazi5yTjzM/x81yTzpeclo1lckrP9DrhLQb+aj8c6cc8+kSVdioc7ac+fg4u+4/6ws5PaebKtZhTuvIkVfulXvlf/fKjXSE0Rg9QZUe9TyhfQojESNTnKP21SSm+0gk4hLTeK7i+g8ZvVQ9acrj8bhdMKqQuGPHjvLQQw/ZyPLCCy+k4hlxvvrqK5Ph/JtvvrEj/O2330osiYCjlOWMNHfddZesWbPGrrt162aDw6pVq1LKUbxx40Y7h6p1Pv/Xv/7VzknPQFEnLIw8kBtJUM7octNNN6WGMBQwtP3hD3+wa4Y7lKOwTEetL7/8MmUItBfz/waqQ/neYu1LtePqlLTAcMzB63PkQjkG5/vK1TIcdy/QiRe+tWbMaMlt0dzcHR5z7rmavEayWwZNIffkpjKk5TGmcvLKhfLrnK7qdSJXjOotVyQnZ//SabA0yByiTSHfuLSqWoa/v0wads5STTE548mxckwXmk6+NFHuN+tzrJCztMms3bVBnTomv8nOsNaQTvsYzowRYtbo2ivM7JHkNoOkMDqLpP1CtGFmkzQ9ZpS0ZShoz8HM0rVrZpi0bVCkfbuZpmvnEG2dWSftnZln2LkdecO94UrecG+4N9wb/ndgeFbL/6M6o/LVmDEytOW/6RDfzHjYb3+nE1AMb67XzWWQFmZQq2Mt3agVC+QXg4Ih/5I3HpbLhweGN7ipvzTumCtNOg823lkZlaF/WyaNO/Q1EM7pXSjHdsqVxlqQo3Xof236xxoal/8Y2FWW7dwgUbXjlOwOOjkI3S0nqZbhkJucUkpmyW6m7K7dOZxOLszJOQqnCbMjd15XXH20j+Ht2rWTWbNmSUVFhfz+9783hpjj8lSFxzrMeXm0wxx369at9tQFYk7L3Bdiwv3pp5/a0xh0uMn1fffdZzP/m2++2Qq4Z88eefHFF+W2226zc57aIH/99dfLSy+9VG8h9jEcQSblzuDXXnvNzvv21erVuJycHMnIyDDDKcyAAQNSk3hqC8ORw/CVK1da+IQJE0zHvHnzrLD333+/XHnllfL444+bLIXi2ZU7RxYZdJCWAqbTPoY7CgtzO+KIcHe3EL5rSA/j6NhR+Bxy1+h0+dUnk071Gv73TIdk9L6eVneIC63bM9Pp4KTCVMvoSMluiWtXFdNaqanaLVGe7ylXREro4fQeOyGRygoNq5CY+nZlhbpONCHl0TKJ1kQtvjJWoYnVz7VxVZYFv0rBlepmMTVwjx4r+dUqHpWy8gqNi8meiogx9/CVEpWSmnJJqBE7YmWyJ6ayaVTL6IJTfihTrmqnDSMmA1s1CQYX5bzk4LJy5Ci7zlHO1/67sM3vDKdf5XaRBZv07jgRl9/kdlejKqVw8crQgJIvZz0yWiVr5H/pLVzfWZ8ZwI0zsqRJ5lBpmJErDTrnaFhCXlk6Xk4ecKvdorUd8bBcO/F5yztMtYzO+fEPZJoaTZGzGBGTo2SOMrRyZKFeE95MjT9ORl34Owv/pY6SCzcWmyFn5qvRis7YRaukcaYOJslR8MzeGB2XBjoA9Z3BvWRCGnXLloYq0yQzX47qONjC+i0aK6f2b49auaTwPrl+4tN2HiZvtDdayRvtjfZGe6O90d5obzTkjfZGe6O90d7o2kYP/FELmXrVVWpzjfRpcUzqKWqOMrR8xEgtwAmSrTxA+Y0LfmePBX42sLPM2/ClRPUu/j8GZUh5tEIKF66V4zoOSj1F/c2DI1RDTBrdMkD6vvuJnokcrfFHdc6XxvzI2mGQgfXq4vFy0suB0W2H3i9Xjn/KzsNUy+iaBA88SBtNLiHgD7/zKsd5umlPP/R/8tyOmoSnWjwTIZbVcvqPtVDE8ZwORp+tqLOwGtVZk1zPwKo6ZPkNOK7pA33I638N2ZdqGe0ysEySz9fCYS48/ZmeC3MMIeuO7hwiPqwrHBem+sKhWkazdIGlgCQoKyurtcTvL3/5i5SWlqYWa9x+++0yc+ZMiyOMJQ9PPfWUZGdn23oL0rJA49lnn7WCkQbmySvhEI+PWfSBLEf0QCw/RFd9VMtojOKRLMpvuOEGe3zLWkUe3bpn0C7+z3/+s0ycONGuCwoKLO7ee++1R7YsBOGZN8+e33//fVurQRoKxmNi0vAsnHjA4XrXrl12XVlZaY+Qyc/VWjrV9mkVQsHHH39siUaMGCFXacO89tpr7RxyRoM86PBMmWso3WjCYXQtWbLEFqfwYP3ll1+259KOiKdAyKJz2LBhVht5ecFy1HSqZTQ0bdo0M4Tqh1CIoY5AisJh9JQpUyxu0qRJliFG84Q/bDSEzPr16w3BO++8U3r16mVhrl2Qn1tRQzgrVCkUvzbUhfY+RkPuCT+ZPv3005aJM4A4FOEeU6dOteok03Xr1tnPFKCIO/E0H0ae5bH4ebjK8V9+ZYBIz68JgMA5RH7IL1261K7DVKfRbuWqI2cw5NAhcxdOmGNnlLt2RHj4mrTuOnx06SHOw9eO6jT6753+Rxr9P5X2C7a5rXIM703wS4KOtTWRwNWULTjM/ImxulCjJSoRDUiPZ+VhjTKOzDTHwnWWUMPQrYE4Mb+EMBOwxuUS6hDPKQKJhPaQcbXDMlQymRDrH9WoFkDMDvS6hjEuZvmQzLSRGYZYpknmXFmtlEhyOkF5iIpxTZwqoAzMWpx80DD3T/WCzS/o2ae01MnoCTJZhxjmZjqZkrXjxsjAHx4n+aecKPkta/PQVifKyN/+1tIr5FI8ZoItH8jXcDuqTIFybgu9Prm5jGjb2mShKSs/lHMG3SZnZfeQeZuKqEvNLy5Xvtlb/iuvh1wz4lEpi5arZEJGLV0mjbsMlmO6DZHmGdnSVCfAYT7nsVFSystSCsbr8/iVPkuOVbl+TIyTgLV+aqQc2zVPjs8YLs31SLrjk3y0zj0HzvrU5AD91cWj5czBPeSnfTrL2l1bLIzyXTq8l5yR203+MuZZSURrryiti/YLNncHgGR3CJDWJmsuuFMIr7sI3zWwBsNElbl7sLUY3EHwkxl3ES31qHcSrMtwdxMQ6zO4q2CNBncW1ib0P2s1uMNgvQZ3GRB3GrZuw+429q7dCN95sI6DKmctB3cgrOdwdyEw6zq4G+GnOO5ISMddCUfuTIJ1HsiK3aGw3oO7FNZ8QKz74G6FtR/csYQHtfrIg+3B9mBr3h5sD3YIaNiD7cH2YHuwPdhKHmwPdhho2IPtwfZge7A92EoebA92GGjYg+3B9mB7sD3YSh5sD3YYaNiD7cHeP9j5J58o2QrS1KuusGz5CX/d6HEKYBMDPFsBD/Pgk4+RkeefFyiQGvmqcLhktTpW445XPcg3laEtjtcKbC75CvjINq0Dvfp30oqFWqAucubgLvLBpiLq1Qr0x5GPyG9yu0q7UY9JVaTCpMcuWin/0ilPju6WK8cAUhqf1XuEgh1TrBIydG6RNO48SBp26q8AfqbpWQUUkbOfHC0NFGh+oW/SLUeOztSKyshVnXnSoFOWDJpVpOlZT5CQvh+Ol7OzusppA26VVTs3WBgvn1424hH5tdr85/HP2XKJA1G9YGPojs8/l63Li6VkzXqJ6TUrNstKS2Vr0aey7fMi2b5sWS3etuwLKVm5ypY9sMYiumOPbC9aJjuWFetRWY87irkukp1FX8r2lWtMVq2X0soKWb1jg6zctV7KIpVkr4DXyIbSrbJ2x9eyevdWBYm1H3EpLS+TLzZuk2Ubt0jRpm1SvGl7LV61ZZfE4zFzjp27KyzsS+Vv95TjMVgnX23dqeFbpXjjdlm2eaeyHtGVPG7fU215Ib+jskzWbF8vK3Zskkgsgrlm3+pdW2Tdzk2yvvRbVB6Q6gdbyepK/wRLLTQLPdJcyMwQCrLde1TjWLLrQm3xh52FZKywaMM/9B8LddSNAx8KpIITFsKweAdfVDk9t4U9GmcWaBpTRVgaowV5t4w3SIQWrpHRPzUs892bH0c9pNgytmz0yuwjqMacbq9etSFpP+cHov2CjSIW36Uv0HNHtwjPhUFBIQMODEnYykMnwxF9TsYx5OTdOZQe72TC7OLceVi/SwOly4fZxaWzW3yYLnM4tF+w+/TpY8sx2TeUlb0Qmb777ru2zpQ4NniAMApQWQ5KOOtUIXbBYM1r165dLS2bSrCMlCWikydPNhmWSXNNus+160IOfayHJR+3IwbrYlleihxrWy+44AJj9MPIV1VV1QLjgw8+kIsuusjScRw9mlcHRLZs2WIrmNu0aSMXXnih5e90cw2fd955tjMH1Lt3b4vDHtKww+uh0v67ETXaFbhnz54W5pZZsz0ejAGDB/NuQ7BrB7KsUnYE2ISxbhx9ZWVlBjbgvPXWW9KlSxeLZ6NXKtQB5cBGfzrYLEResWKFyTp5QEQPcQBJ+Ndff23reFu3bm3gsFIboKZPn25pXFqO5OHK6Vqii8cpsBdb2EaFI2VnI0Mc42DpgGCTMUBhNCBiEOcUFi913oAMceyz4loBVBfYN9xwg+m4++67reIoCNunuOYP7Q9sCspC6jAgmzdvNln0LV68WHbv3m1L19HNanOI9H/84x9N5qOPPrIwl54V5djkwHZEOfF6WhI7RkIsrccOVqdTnrAd+6P9gg2hhK1abrzxRisMwH344Ycp5bwkgDc5j2MHynDGvDVBgXk7Ai9wno0uXlhAlmXvrhJZ4w9RYPaZIRywkXMr1cmHDSbpMtDHqnNAROfDDz9saR988EFLSxeI7eQJX3fddakK27BhQ8pWNuJBHrDd4nRetmAvHOzCiUiPo8BXX3216WEjadcSDkQHBNsRtUoTdK+huOZDJhiFoYsWLbIwiHjihg8fbuDQTTiw8TjAYbk+hBz6KQzhdC3I8doA17wSAAE2heTlDY7wn/70J9vFaO7cuSmb2HQI4AE53DU5GjJkiIFIt8JbJdCrr75qFXDPPfekPJv3HgD60UeDvawcOX1sd4p9jE/pedRFBw22pyMnD/b3SB7s75HqBTvogcJ/a5OOv8mz+qiOeAvaN7w+TenhLk8XXvvqUOnA6Wrp10N6ir3X6TF10349mzdXozrm2I1yolo5IhG9LeUBERsWkkUt5hY7hnTyTdd94nmEwC19cBHcfmsavWZsY4yBGeiiemLxyXv04BZZzzUurnboKBbcakOmL8mQyjLE2XsvBCLI7bpeW14Wpyf2shBxIU7KMh+J8a5PMliqg6o2xh6dmqohJm92HQTVC3a1WlWtM4JqnV5FqwKl1egvLZFY1R7ZHSu17dkcV1eUSVVkpyT0HEB4shZs16Zx5WV2jFVWSUTTxvZUSI1eV1iplRWZkuo9UhGvUL1lBpJFKaBV0QrZFd2jYWSugdGIlFTGNb+EVJVHpLyyJrXNW8ARqYlXUaUKQkQqq2NSplPXXVUKdk2lKtVyRSplTySq9wlVsjtSbdvA8cEitoHjWFapFWkvJwFqQkrjlRKtrtDyq8PFgllWuZavOqrhNdVBxR0E1Qv2oqwBknvKifZi+palHykeMZ1vV8mbP/+55J70A8k7pWmtl5d4Mamg1b9J8evDrfYrFMy8Hxxrz8NhXmIqaIHMiZKjPKhlM9n0tt5saGGq4lG5cvhjcnZOD+kwPriBwenmrv5Efjawg/wyq6tMWzFf9erUMVIl5z41Qo7tViBNM7Lk+G5Dar28dHSnLBm+YKVVeHkkJr944HU5PqNATuiRJyXsz6cVOXXpKmmWkStNug6VppmaTs/dy0uc/0zTlFUGb6PtqiyTs/K7y39l95QHpucr1jqnVvsKi2apvd3s+fvK7evN5gNR/WAP6CPZLZrJ4JOPl290/lyTqFKPrpY3f/IjBbaZVgQ/AtTmvFbNZflQBVutiamRWSccJWzDnneSyms8z7PzWjUzzm9xnKyeFrwTXB2LyuWFj8gv8zrLLROCfflo7u+v/Vh+rmCfOriLTFu+0MLxyDOfGC2NuvIMerA06Pa6uG3b4aM6ZcuwuTy3iGvFxOTf7xspjTLztXKGaOvh01s1MuHjNdKgS7bK50rDzCxprJVB2kYZPA/Pl1N7jZLSKj6iUqMVpGDn3CZn5GXKPdOz1F46QgV72Rw5e3A3+bUCvmzH3k8H7I/qBXtx/36Sf1JTBbu5fLtYb1YAUD17xE9OlZyTjlPAm9f6lcb9UrNi2HBLH6uslKzmTZLhwa86bKaYl5TNbnmsrJv2lnlJtXr25SN6y69zu8pNEwPPht5f95n8fEBH+VlWR5n61YcWhree/cQ4BRCgCuzHgvCvNAb2vOAhUZV2IT+/f4Q0Vu89rnuelFYGm5aO/2i1NLK98xXk5K8zKVbPPq3XCClTx8K20qoyOaPgNjkrr4fc887AZJeRkFFFc9Sru8mZavNX2zeZ3gORB9uDHZAH24OtoR5sYw+2B9vIg+3BDsiD7cHWUA+2sQfbg23kwfZgB+TB9mBrqAfb2IPtwTbyYHuwA/Jge7A11INt7MH2YBt5sD3YAXmwPdga6sE29mB7sI082B7sgDzYHmwN9WAbe7A92EYebA92QB5sD7aGerCNPdgebCMPtgc7IA+2B1tDPdjGHmwPtpEH++8D7D72ynT2j4+TrR8u0UxqJKIGjPnJabZlaNapGrfP9qDNpHj4G8Jb/vGK3TLwxIYyWIG27UHhlsfJ8B+eILl6zsfb101hj6gaqYpWS7vC3nJ6Tke5dcILlj8bBcxd86mCfaOclt1J3l75gVV4hVb4fz02WhpkDpdju2bJ0UnAHTfoNEiGJsEuj0TlF/cP1fBsOVbB3qMOwGvWEz4qlsad86Vh92EKNq9T56hMrvHRCvZPHyhUsCtsY8eSynI5O6e7nD6su9z/dpbiEHzPvXDZe3LG4Aw5IzdDvtq2wfI7ENUL9sK+L0vfVs2lf4tm8u3CDxSUavXWKsn72WmS1eIEyfq3vV+9dzywxYlSNHyYvY8eKVfPPqGxZLdorsCeYDxQKyNLr/uf0kz1Hi+bJk2w7S7KYtVy8esPy0+zOsnNY5Nga4neW/OxtOh3s5zUt6NMXrbAwkuqauR3jxRKo47ZclynLGnUSYFKfjkfbtS+nxTMXamScSmLKth3DZVjNLxplyzZyUYBWmNjlq6RY9sPtLQA3VBbQ+PO2Zo+4FPvHSa7KoL9AXdWlcivsrrIaerFd7+VJVF2h1Cw3/xilvxsUCc5VR3h813rzLYDUb1gl+/YIVuLPpOtxUVSpcCxl0gVmS9fLt8u+1K2La+9D2vAX0rFjp3W1JDfXpTcr7Wo2PZj3abnO9mXddkXsv2LZVLF3qhqeCKakNU7v1ZeL2t3bwnCzIsrZNW2TVK8a5PsjlSYXra3WPXNDina9K0UbdwixZt31NqHtWjjdtlVxl6uwS6TKzez5+p2+XTzLqmJRVEtpRVlUsxerptVXvXYPqzKxbav6zZZ+U2J5hOznSFqYnFZvmujrC7ZLFvLdpht7GWySz1+9Y6Nsnbn5tQGXgeiesGOK1js8aE2W5tO8KHkRMQ+ZMyHgl3fFWaydPJsq5KKS8oG//AM9uwIdOA9eDH7pFBBtomLHikoH1dO6Akb7iIHmRxpzSb0BHsB7mVy0vw5tyOpKIslMHm2naEcmGqWooejxXNuW9DYBjNcQ9G4ptNrs0WvCWZ3hho1CJsOhuoF2zRyAHS9sMLq/wBQQsjKsk0yhcGgYHPYgDCUAiRlnfHKGM2RnYMpvOVBkkDMCgOzuwd5W8EINxkiA+12GWL+mibNE91mseXLrsNmjV6TPtjRh7zQo4cUW00iYnG0BqDXcw0IKg19OAtyLvbAVC/YBq6S2ytvr+cE7MJcPFSXDPHhsPA1FD46Dsu4c5cP52Fy1+FwzsPhdeUZ5rrIxbl8IafncKlesMOFdBm6jJwhjtLPHbPFp9PjGHLbgB4Mu7yhdF2OXZw7ujCOXLuw9PTp1+mMnVBYzoUdDtULNpu9srMk21+yIyXkMp0xY4Z06NBBnnnmmZQRENtqsqUncc8995ztOsk5er74gm3tRd555x3bmZLdHiHSrlmzJiXHxrpQkQ6uyN10002pXSXZWPeWW26RW2+91bhTp062W+SYMWOkUqd1zg4HCNdsrkua9u3by8iRI1My7KfKjpbkiy53dHpJ88QTT6TKzBamxGHjZ5+xw/yhU71gs88pW2yyPabbepmM2eyW7T7dvqwAgTEwe6KyFTLhbOXJPq1sGgsTB40bN862VqagUFSnZ+xtir6HHnoopYsCnX/++SbrwH7sscdMF3u7slUp2zmziS32cFywIJgeOmKWAHDIUw62FcUmqH///qYfHeSBzeytyga3bktn0lJmthh1Wz6j58knn7TwQ6X6B0gllGIENeqmN3PmzEkZD0Bun1Qyx9ORZ99ViIIhC7tdfcePH29AsUMvxKa26GFPVbeLLwTYDsydO3daGGBzzV7WePLu3btl69atqd2IyXvt2rUmCxUXFxt47LHKvq2A6hyHzXyxD0YPe6qS37x581LhtEwoLy/PwMZBAJx8aI3OMQ6W9jtAsv80hYDZ9BsDaW5c4yVkilexjzSynAMsWyiTvi6wnWfTPbBTMOBRENd9ONof2G6DdIh86L7ocojr169fMkbk+eeft7zZQDc/P9/sZlNd1+WEgQJE8mM7aIg459VUFHrmz59vm+xyPmjQoJR3h/Xsj/YLNsxOu4D6yCOP2C7CeCWgbty40UCiAMOGDbOde/Eiat8ZURfYeDagsNUy3Qe66RvdoOlof2AjD4XlXatiT25aIV0PeWATdu/QmzR2FiY9OxJD4fSUiW7FdXcQ8Vyjlzh04EiUB93hLvRgaL/dCEqoTTLDUDYrxwPcLvHsjQ3YdAF4Fl0LHuSoLrAnTJhgBWY/6oyMDNPHntbr1tW+5a0PbMBzYIcJL8ZOBl4qjnyQpQXSIiFaBDIM4ul3fdjBDvLOsyHKzxbPlJFtnbmmFTF4optB9lDogJ6NcroOgHTMdwmIo0/DI1w4zY3uxKWlL6RwgO08Bs923Uhpaan1p6RlMHKeAgE2hUc2Hez0bgRwaVHkww7vgJuZmZlyBLoRAGZmRV7YxADu0kOUg/zcZumEb9q0yXSQhrTMSGAchcoBdPI62MFyv2C7Y2FhoXUZGOkGP8JhBkjC4WeffTYVBwGm82xXiHCfDdFvuwphNsLsBHKeDbg0Xwjv4poBEoCZMW3btk2efvppAwUb+SAEOgEDAGlxDMaOaaHkha3OTsiBHfZsukdsI87tCI8Ojugnv/feey8pfWCqF2xqyxmDB9McKRDdCuTiAAJjiHMeT1oYz6ZgAJQ+G3FTP2jq1KlmOOwGuE8++cT6SboRN/UDbApPXhSWc3Rx5JqKhOhSyBNvxB7HEDLIAzozGRdHCyM/BzZTXDwY2fCg6/QwhmEH33Jw8/oD0QH7bBhlr7zyihlfFzFFpNmmU0lJiRUCIBzYfOcAUOmawsQXQag0GPC5CQIwmrDrRug+AAlmC32ONGVudpz3043hzeihYiEHEEd04ZnoZUrnwtGFXa67Y1DFbsLRHQYUeWZnxJEP08CDof2CHSYycx9eSCcGm/QBxxHp4HCBXViYwuGuVaXLhcMcO72OwjLpcY5cfLiv5ZwwR+46HBamg8knnQ4abE9HTh7s75E82J7+Ick7tqd/SDosxw6meEyauNdTZhKkcx/7Zi6TIGV+nYsngkmR/USr8yemUHqzIxH7VVAv9sP2a6FNqDSV/erHf50QJn8RtOkY0e5nSXfursmUn4pr+OaHWqYTOeZ5/KKplunf5O+GyJJM5fl5lzDYimEnyQAXqEr49REN/MBJudDJL6/Yyk/F/FgcScRs0YPep5gOzIqAhdkYwsq+oEC5gqzq50A/Ru21S//oBf/AGXXgYiHJaxNzosgZfuTu5LGJ9PZbr/7bl1ITWwBkoqtY8fUNh2XgEZaL2FIR4NYklovlEcSihdoIag+kEuoL1ASXGmtY1H0Dcah0eD02FoIu1qpVMU4JU8MkUaW813GtuHq0ysBmbopMlsi62a1jAHTABERLhhLTrZzMlDUVlk7/p3Tw3+JUj9oU5wM7eCEIko67L43TsyAPQz84cicT1XxolPYpHjyXtHytx1aRYIiKh+929NrUcOAP31Yx+/Q8yazVsIZD5dVEVXNcK56P4QQVHDhdPazprDxWlqilwYGsMaGTc2Wy5g82BGtOqjVOYwjT8kVUsEovoubc1BPr67ACBolwnmhMGu+YvKLcvaq8ZZKMcqLqyVZHWicsJbN1KOBGnJLZp/iCBdVkeEaU9WjqVA4X+S7okB2brw6tGj1Sxl1+sYy/pLVMatNaxlx0nsy7/17ZuaxIjccdIvpPe+bqavl69nvyznU3yOgLLpBJF7aVt9u0lSmtNV3bC/fLEy+4SMZdeLFM79hVNr47w/IO8FP9VZWyfvpsmdj6XJmclJ98cRs9ah52rszxoiBsYtvWdj754rYy8aLzZdwFv5P3u2ZI6fzk75VaEQBbHo/J3zYVy4OzhkrXKa9Jp7delS5TX5MX5o6SL7YGP7WZn1MfWtKPvlktD84ZIjdOekG6Tesjt05+SR6ekS/z1n+mulhTqIJK5dGozFi+XjKGzZALXxgnbV+eKm1ee0va9JkkF7w6Wdq8Mk0ufmVqvXzBC5Okfc77MvmzLbI7QtUHeiticZn62Sa5bsBsOf/Zt+WSl2dJ2xfekiteeUdGL1kru6uDnhkCuzmrtkjXYbOl7UuTVXaq8tty2cvvyCWvTpVLX1YbNIz8grgpSdawl6ZImxcnyU2D35EJS5ZLOY9s8F/Fjfooi1TIuOXvS4+pfaTrO/0kc2o/uWHsS9J/8VTZtGe7+m3guJhCg3lv3SfSa2aeYvaadFaMO+rxqXkjZMPurdp4sfTI6ZAdm69PLej3muSf9H8l76TmkteS1b9NZfKV7WTLoiUGID0JLTpSHZG1o8bLm6ewDvMYyWvFh5hOkOyTjpN8vgm0X24quap/1G/PkeKhQ4PMrY60wVSUy8qRYyTnhIaS20LllPNbNjNb8locb+foKND0BRpWoGEFPzxB45tr3LGS27KpFLY9X9a9Ffzum6x7iWhPxKrkdm/2ljOyM+RXOV3k14MzpP2E52X+xi9NBse23kVHjQVrPpWrRj0mpw1qL2flZsppgzvJFSMekakr5ktFtFzVBorLIlEZufgrOfPxMfIvHXOlUcYQadS1QJpkDJJjurF4dojwbaL6+KiOg+TMR0bK0LnLpbSSsYsuMCEV6uTD3/9Sfn7fmyqTbd8zatBlsBzbo0D6zvxMSmzBbiBLa5yydIWc8+Sb0qjLIJUdLI0yh8jRXfOlQdeBemR9aSjfjGC9qTv/352y5Cf3F0rWzC+kjLWpqpbpJiNaSXmZ9FkyVs7O7S6nK15n5/eUHw3oKPdMz5a1uzYZVmABGiwAHlE8W9qM6CWnZ3eVX2V3ll/mdpVrxz8ry3dsUHyx98jpsBx78YB+kvvjE205O18Uyzq5mUy9ul2wXF6J+Zo2PVs2v3rsWBnx0x/LIByq1XGSow6brw5H2v1zM+PR5/4mtbQeYIAnVlmhjl0og5o3kuwWgU7S5JxEYwjS52jabK71nA9r0fhYgp/HkvwWx8rIC38na6ZNTemF+ODW5JUL5TJ1zv/MUdDzuqhzszT/RVm4cZnJuLksx79pz8OKcpbqn53f3RY7tyt8VKat/EAqYzrUJ4kV4qPVsc96Yqz8Mw6oztw4Ux08M08aqlM3MsdmOX7dzNL+s3qPlmHzVkhplZvLxc2xh2jYv99XaI7Ncv9GnQfLcZn56tifq2Mz8Ug6ttL4j9bIGU+Mk4Zdcsyxm2hDOLqrOq7ZUqB58SpAKG+Nd0f0n9qrUPrN+kL26IiJZ7u5d2llmby2eJyckX+bnJHTTc5QB/9R//Zy77uDZI05NtMbrGBuHpeRRe/JxSMe0M6jm5ydnalpMuS6ic/Iiu2bUjqPlA7Psfv3k5wf/8De/+BTeLwDMu2qvY4dlMI59nh7JyRLe1XeC8k5ue53Q9KZd0Xg0b89K+XYEKp5dwTH5v2RbHpsS6P6cdqkY9MoeJ8kl16ca8070NtUeLdklDo275c4nRDvmUxWp+Rdk18q2LxvwufweOdk4cZikwn6HTux90+uHPGoOfaZ6ti8h9Ju5KPW69d27JiMXbTK3kv5507qVOpIOBPvp/COSfo7KumMY59pjr1cSqqYXkBxe38lTx2bd1ga6EgQOHa2vcvSd8bnyfdZXOkS9l7LmY+Ps3dbGnXjC3aMGpqHNoSG2BTKs0n4vRftyY/qONjee+mvjs27LyEk7B2YfovG2nswp6tj8y7MqerYvA+zZtdmdey9NuDYvBtzSeF99n7MGTnd7R2Z6yc+be/JeMf2ju0dez/kHTupE/KOvTdP79jesb1je8f2ju0d2zu2d+wke8c+dPKOndQJecfem6d3bO/Y3rG9Y3vH9o7tHds7dpK9Yx86ecdO6oS8Y+/N0zu2d2zv2N6xvWN7x/aO7R07yd6xD528Yyd1Qt6x9+bpHds7tnds79jesb1je8f2jp1k79iHTt6xkzoh79h78/SO7R3bO7Z3bO/Y3rG9Y3vHTrJ37EMn79hJnZB37L15esf2ju0d2zu2d2zv2N6xvWMn2Tv2oZN37KROyDv23jy9Y3vH9o7tHds7tnds79jesZPsHfvQyTt2UifkHXtvnt6xvWN7x/aO7R3bO7Z3bO/YSfaOfejkHTupE/KOvTdP79jesb1je8f2ju0d2zu2d+wke8c+dPKOndQJecfem6d3bO/Y3rG9Y3vH9o7tHds7dpK9Yx86HZZjLx3UR52muTnpEHOao+XtKy+XbYsWKdwJiUlEOS6RSLWsHjNa3vhxK8lp0VCGntxMXm+FUzc2x6uP+UT00JbaAH54vIz6zbmyYmjg2MEH+hWcyj2yatQIyfpBI3XS44357nqu6uZT0xy5ztH88lueIPk/PFEGt9IG+KMT1O6mMrBFM3mjTWvZNDX4ljrf70ZvZaxaJqyYL5e//pD8cnAX++T0f+ZmyI2TXpT5m4pMVoulstq49GTOuk/l8pGPyM8G3iy/Kegup2Z3kSvU0actXyhVUT7LHNDuaFxGLlkjZz8+Rv6pc678a/fh0qAb31TPVocaKo26D1MHCpy8Lm6gjn1G77HqxKtlZyWOzWeka2RPNCb5fyuWn95XKP/aKV8aZL4uR3XBQYdKn1lFUlIdUSlkYyY/4RMa1yg5uos6beYQOSpzmDTpMlQaakNoqNc0tEbd1dk54vDd8u28iR6P6pwjpz44UvrN/lJ288npGkVAOy+tDdlVvVte+Wi8nK4YnJmdIb8cepuc2reD9Ho3W1aXbNScY4HDqinxREzeKJotlwzvJWdqp3F6gXJ+plw3/llZuXPj/z/HTsTjsnL6dJlx910y5Y7u8rYep955uyzu009KVq2xgvIt9Rqt/YgC//WSpTLnwV4yuWdXefuOHjKz5+3y7p3dZVbP2/bLM3pmqtxtMv/pZ2TT/HnWOwCjVZH2VN8uWCIzMrul5Ofc0VNm33G7zFb9HGfdoTru1Pzu0rg7e8ostXG65ZshM2/vIQuefl5KPv4sKJMqR39Ey7Zkyyp5ef5YeXRmgTw6O18em1Mg2UunKuibTJbKAXwqaOW29dLng/HSa3qePDnndbl/1hB59YOJ8qnqqI7zzXMooU4elcVfbZHnxsyVzOy3pUf+DOmZ9670zJ+u53MkM3+WdNew+ribpnlm1DxZsHyLVCqm1rrUkGq1d0HxRun9+t+kR/Z0uV1lM3NUf8EcmfHFBqmMuN4dSsjHa7+WZ8ctkJ7Z78rtue+o3Ey1YbZ0HzJLMgrek27YUYAtynkz9ThTZbieKRk50+XhwgUy6/NNUlmtes2pAS4uFdXlMmPdx/LoewXyxIx86f3+cHXqXBn56Wz5pnyHdgR8dx3c1OqaGlm8oUhemztKnpyp+M7OkyfmDJFBSybL1vKdUhOnJo6cDtmxIZxWohFz4JRX0JPBargo4Am9iGqho9qyNdAAsK5ODyQJEtXPQc+fsLzQG9Oj4hOoUKaXRS4YEAN2/2pfB71KgvzNITCgRofEGrUvaCg4qoEeU0nNIKrx/CNdXCVwYhp0AltUjjQxTRB8/F7/qS3Ea3OWqKUMLEA20E2Ppbr0GrPJO2j8UdUZYEj+B2L+JLBdz2HLXcNcPvrXbIroeVx1Sxzd5IWk1oWmoLlR7jhsNqoOPaPegvPgn5276+Q5JQORGrXdRmTCTUnA1Bn5RzVv6o4e3fQSriKIIg8GWnKTsREYzPVcxQNwvwM6PMcGWDOWYoMdBQdW/mmFJdRMLQEMANUqaY6Ah+o1oUGC/TDaHTBUjAaZU+iJ5QoKYXnCgxoOMcbBnKsOjQfEoE0EYXa0dOSTrAzC1HOIDspIfKDLidMXoqsmFjQSa+xWc8SrHlLpkTytki2EM5h8EEdGsQAXFNfDIB3845ywAFtwMXvRhBxRSOE9gWSSiSOcApEfbqTpkrpNXm2wc+UAl7pYm4amt3TKBpsWpCahUx69IC3lQgW4GCQqZw1ZWRMFOZiu4Jz0uIM1SBJqWb4LOizHdmSFs0oFnKCwcDqly7kwd3TsKHwdjk9P784Jh8Jh7rw+dhS2KxyXfh3OOz0NlH6Ewud1kUufLrc/HelxYXZh7ph+nh4WPjoKX9clD6WHh+Og+mS/Tzpsx6ZiHTnjHbtK5xjXIdqRC4c4xvRG1F3XRciH84HCYeG8yMfpcmEcw+EcHbvrdKorzOlLP4c4DzOEjJOrj+ui9Dh3XleYI65dXhwpL0dH6fIQYeHw9HN3nX4OubI5cnnXRWHsv286LMcuLy+XrVu3yrZt24x37NghFRUVqUKHC8uRawpZVVUl27dvtzQc0ePiODoijQuLRCJSWlqayot0u3btskZBfElJSSps586ddl5dXV0r/8rKSovDTqeHMBfv8kPn7t27TUeYKRtxrqKiejPobEInTDoXDyGDbS4/2Olz1y4ttpEefMKN3R3DRBjlDsdhHzq+/fZb049OZzc2Qci7tGVlZfvY8M0339RKH+a6bHZylBO9Lh/0gw3x6KNeOIIFst8XHbJjU4j169fLn//8Z7n44ovloosuktatW8v9998vxcXJZ71JEN05hV21apX06tVLzjnnHLnsssss3R/+8AeZPXv2Pk7m0lJZQ4YMkd///vcmD1999dXy+uuvWzwADhw40MLbtm0rF1xwgXTq1EmWLFmSAppKHDNmjFxzzTVy/vnnyyWXXCLXX3+9TJgwweId0VAHDRokV1xxhVx44YXSpk0bs69v376yceNGk6EcNLRPP/1U7rzzTjn33HMNA/J94YUXzF5HK1eulN69e1t+2HfppZemmDSO3TX5oQfbKNNXX31VyykdOad2YTjX008/bTaHdZ933nly3333yUcffWQ2O9qyZYvpv/zyyy1P0mBj+hEdHMPnxLl4bO3SpYthQWOEsG3q1KnSrl07qw/KTV2TD2ETJ060xvZ90OHdPGoBPvvsM7nxxhutkDgDQD333HOyevVqk3HAI7tmzRoDHzAoKI4KAxINZN68eQY+aVyvR28+evRo+dOf/mQgkQ6nxvkc7dmzR3Jzc00P8Ry7detmlenyR8/48ePlhhtuMKCxF7unTJli8dCyZcvMUYlzeqi0mTNnphqdI+yj7Pfee6+Vh3Jj31//+tdajo1jPvbYY1ah6KW82Ia9kydPNpso3+DBg+WBBx6whocDoQ8bSEP4hx9+aCMQ5JzaEY0WfVdeeWUqD2xHB3VCeZ988klZsWJFqpGAB85Iw8aGcePG2bm77t69u6VHF/bccsstMmDAAIvDMZ3c2LFjrVOiYWEXzg0u1Cc2kL/D09kC7u+++25qRCVdeuMNl+9I6LAdm4Jg5F/+8pcUqBSgf//+snnzZpNDBkd/9dVXrfIpMHIUFvCodM5vvfVW62XdUIUz0fIJJx2yVN7LL79szuzoYBybyqcysJNeDbmbb77ZnIvGRGXRYCiDc4qnnnrKnIFyptOhOjaY4CD0/jgZ4RC6YWcntnzwwQdy9913G0YwPV3Hjh0NC1duZxM9H7bTYMkf5jwnJ8d6arBFB+ViNKFzIS/Y5e06EWcD9NJLL5nNlAu8aPBLly6tcxqBDuqY47p16+SOO+6wdGCM7Yx2zz//vDk7OrGxc+fOMmvWrFQvH84fPWFbjoQO++YRojLeeOMNMxwAKdS1114rw4cPtznV119/LVlZWSmHAejrrrvOegBAcGkAokePHgYgTk0Pfvvtt5tDkIZKwkkAD3KFP1jHpnfBRjc00gsxHL/22msWBuiE4xiFhYU2P6wP4MNxbOJx7CeeeMKmKI7Iw7GjTz75RO666y6zBwYjpjRM85wcPd78+fMlIyPDdDs56oI6WbBggWRmZppthIOf63DCedWVP46NPFhSPuqJTqcuR3RH5t7PPvus5Uc6nLpnz56ydu1aGyHokOg8qEvsRefChQutsbge+7umw3JsCkTrgnAuHJWh1DkwjpOdnW1OTYUCPHFMK4YNG2bpqGB6o7Bz33PPPTJq1Ch56KGHLAwGDObmOFM6Haxj07MxDAIqjoZNjABOv0v/8MMPS1FRUZ2V6OhIeux0x4bS8+BGC0fALmxCN70mUxIcAdyxEUwc3sg888wzsmlT8tdRJXr5Dh06WDz5Uz/05uiHXJ7p5XvxxRfNsbGbeyc6mLBjpxMdGPdBpMFe7L7qqqusk3JTKEYLGqfTS51zTwaOYb3pthwJHVGP7YYyWizD3R//+EcrHMYDKMw5FcBNEU7oGgRpP//8c5tukCYs665hWje9E5Re8Locm14MUJ0sjs080vXY6GQqwqhCuJuGUCEckSOOm6xwfu7c2c1wT8Wj72Acm0rFsd1UJF23u/7yyy9NN+WBSesaNjIbNmwwrF2vis033XSTTJo0ye4VkEMHGCCHQzsbGZFGjBhhN92QyzNsC+VwjZ2GS6NavHixjQRQ2FawpQExCrsOinzo9UkDTjB2MRIyDUHGMc5OQ8cnnF+445HSYc+xHVHRXDPsUJHOaMBx52764VqwI1rrokWLzLmRoyJxBJeWG7i33nor1YDIhyPXEI/I6IWcUwMuPfbHH3+cshHwudkJz7GdI0A88WBO7Rqjy5uhlJsj0ocJm7n5osfGsdHH0EtPx6MtR1TYo48+mnJseuzHH3+8TseG6I3Ry2jlbKAhYjdOQSNmikRDZrqHTocZ5cYG7MEZYc4JIz6sr3379jaCuXI5XB1RDmwlDU+R6FjqmmO7uqMjAXuHnbMnbIezxTm/68A4Mgd3nYir1++CjqjHdpXDkYLiUFQ4oDsw6TH69OmTAjIMoks3d+5cAxx5Cg/jfNz0uZ7CUTg9w2BeXp7JAyhgde3adZ+pCI4dnmPTc3Hz6Ig8mNfzRCBcOfSKzB3pcVy+6Y6NvOux3RMCiJtPN/yii0qk92O+zxyY/GAabr9+/awRI4Ms5UAnjy6nTZtm9x3MVcGD0YZ4mBGSG1J00lBh99SCc8rIvJsRAFlsJR15hR+zQs5uHBs7qAvKRwMP39g7YjrEdAKsYOTpkd98803Lm8bjGJtgzsGJxurqi2kLDxeoS8jV25HSETs2gDhjaHHuxo8WCpjcoDH0OdkwuXQ41ttvv20Oh/PRw/OsOlzYutK7HhtncI3CzbGdLI7tpiI4C4By7hwbR3VEfvSO2OEqizTYk5+fb1MuykgD5gaPHoneDRmGfRzbET0zPTY6XO8KU5nY6fTDzuFg5v485gNHfrCBsPH999+3G0LSufLyeNU9gXL14DDFTocB0wE3EpAWvu2222y6EC4/RA9KHjg3Ixx1iVzYsZkzk7drAOgDI57qIOdsCNvjiJFn6NCh5tCuzIxAPMZ15f0u6Igc21E6oFQqPRGVE57PhYea9AIDMHNDHI47ZufUELKuklwFQujjZogff3isCPPkxPVELk+mCEyVkIORcdMGZMK2cA74/Ajl5JlWUCaGTKZT6GcKQzh5Eocd2ObsQw554mD0uHPSON3kQ1p6ZDBw6Z0uiIbPL4Pp6Wi0ddkfvnZEJ0C5nS3oolGk98Tk47BClhtSHi06vdhE3ThbcHLkKGu4fqFwGVx6mPIgz6jm9LgnKMR/F/SdOLYnT39v5B3b0z8kecf29A9IIv8Pny2UMsqmCbAAAAAASUVORK5CYII=;" parent="1" vertex="1">
          <mxGeometry x="190" y="103.75" width="122" height="92.51" as="geometry" />
        </mxCell>
        <mxCell id="bYny6pc4v_U9MV29wEx--14" value="" style="endArrow=classic;html=1;entryX=0.5;entryY=0;entryDx=0;entryDy=0;entryPerimeter=0;exitX=0.5;exitY=1;exitDx=0;exitDy=0;strokeWidth=2;" parent="1" source="bYny6pc4v_U9MV29wEx--6" target="bYny6pc4v_U9MV29wEx--15" edge="1">
          <mxGeometry width="50" height="50" relative="1" as="geometry">
            <mxPoint x="390" y="440" as="sourcePoint" />
            <mxPoint x="440" y="390" as="targetPoint" />
          </mxGeometry>
        </mxCell>
        <mxCell id="bYny6pc4v_U9MV29wEx--15" value="Temporal&lt;br style=&quot;font-size: 13px;&quot;&gt;Relations" style="shape=cylinder3;whiteSpace=wrap;html=1;boundedLbl=1;backgroundOutline=1;size=15;strokeWidth=2;fontSize=13;" parent="1" vertex="1">
          <mxGeometry x="221" y="460" width="60" height="80" as="geometry" />
        </mxCell>
        <mxCell id="bYny6pc4v_U9MV29wEx--17" value="" style="endArrow=none;dashed=1;html=1;strokeWidth=2;" parent="1" edge="1">
          <mxGeometry width="50" height="50" relative="1" as="geometry">
            <mxPoint x="160" y="210" as="sourcePoint" />
            <mxPoint x="340" y="210" as="targetPoint" />
          </mxGeometry>
        </mxCell>
        <mxCell id="bYny6pc4v_U9MV29wEx--18" value="" style="endArrow=none;dashed=1;html=1;strokeWidth=2;" parent="1" edge="1">
          <mxGeometry width="50" height="50" relative="1" as="geometry">
            <mxPoint x="160" y="210" as="sourcePoint" />
            <mxPoint x="160" y="440" as="targetPoint" />
          </mxGeometry>
        </mxCell>
        <mxCell id="bYny6pc4v_U9MV29wEx--19" value="" style="endArrow=none;dashed=1;html=1;strokeWidth=2;" parent="1" edge="1">
          <mxGeometry width="50" height="50" relative="1" as="geometry">
            <mxPoint x="340" y="210" as="sourcePoint" />
            <mxPoint x="340" y="440" as="targetPoint" />
          </mxGeometry>
        </mxCell>
        <mxCell id="bYny6pc4v_U9MV29wEx--20" value="" style="endArrow=none;dashed=1;html=1;strokeWidth=2;" parent="1" edge="1">
          <mxGeometry width="50" height="50" relative="1" as="geometry">
            <mxPoint x="340" y="440" as="sourcePoint" />
            <mxPoint x="160" y="440" as="targetPoint" />
          </mxGeometry>
        </mxCell>
        <mxCell id="bYny6pc4v_U9MV29wEx--22" value="Entity Linking" style="rounded=1;whiteSpace=wrap;html=1;fontSize=13;strokeWidth=2;" parent="1" vertex="1">
          <mxGeometry x="400" y="217" width="120" height="60" as="geometry" />
        </mxCell>
        <mxCell id="bYny6pc4v_U9MV29wEx--23" value="Coreference&lt;br&gt;Resolution" style="rounded=1;whiteSpace=wrap;html=1;fontSize=13;strokeWidth=2;" parent="1" vertex="1">
          <mxGeometry x="400" y="300" width="120" height="60" as="geometry" />
        </mxCell>
        <mxCell id="bYny6pc4v_U9MV29wEx--24" value="Time Recognition&lt;br&gt;and Normalization" style="rounded=1;whiteSpace=wrap;html=1;fontSize=13;strokeWidth=2;" parent="1" vertex="1">
          <mxGeometry x="400" y="380" width="120" height="60" as="geometry" />
        </mxCell>
        <mxCell id="bYny6pc4v_U9MV29wEx--25" value="" style="endArrow=classic;html=1;fontSize=13;strokeWidth=2;entryX=0.5;entryY=0;entryDx=0;entryDy=0;" parent="1" target="bYny6pc4v_U9MV29wEx--22" edge="1">
          <mxGeometry width="50" height="50" relative="1" as="geometry">
            <mxPoint x="460" y="180" as="sourcePoint" />
            <mxPoint x="440" y="390" as="targetPoint" />
          </mxGeometry>
        </mxCell>
        <mxCell id="bYny6pc4v_U9MV29wEx--27" value="" style="endArrow=classic;html=1;fontSize=13;strokeWidth=2;exitX=0.5;exitY=1;exitDx=0;exitDy=0;entryX=0.5;entryY=0;entryDx=0;entryDy=0;" parent="1" source="bYny6pc4v_U9MV29wEx--22" target="bYny6pc4v_U9MV29wEx--23" edge="1">
          <mxGeometry width="50" height="50" relative="1" as="geometry">
            <mxPoint x="390" y="440" as="sourcePoint" />
            <mxPoint x="450" y="290" as="targetPoint" />
          </mxGeometry>
        </mxCell>
        <mxCell id="bYny6pc4v_U9MV29wEx--28" value="" style="endArrow=classic;html=1;fontSize=13;strokeWidth=2;entryX=0.5;entryY=0;entryDx=0;entryDy=0;exitX=0.5;exitY=1;exitDx=0;exitDy=0;" parent="1" source="bYny6pc4v_U9MV29wEx--23" target="bYny6pc4v_U9MV29wEx--24" edge="1">
          <mxGeometry width="50" height="50" relative="1" as="geometry">
            <mxPoint x="390" y="440" as="sourcePoint" />
            <mxPoint x="440" y="390" as="targetPoint" />
          </mxGeometry>
        </mxCell>
        <mxCell id="bYny6pc4v_U9MV29wEx--29" value="" style="endArrow=none;dashed=1;html=1;strokeWidth=2;" parent="1" edge="1">
          <mxGeometry width="50" height="50" relative="1" as="geometry">
            <mxPoint x="360" y="200" as="sourcePoint" />
            <mxPoint x="560" y="200" as="targetPoint" />
          </mxGeometry>
        </mxCell>
        <mxCell id="bYny6pc4v_U9MV29wEx--30" value="" style="endArrow=none;dashed=1;html=1;strokeWidth=2;" parent="1" edge="1">
          <mxGeometry width="50" height="50" relative="1" as="geometry">
            <mxPoint x="560" y="205" as="sourcePoint" />
            <mxPoint x="560" y="455" as="targetPoint" />
            <Array as="points">
              <mxPoint x="560" y="329" />
            </Array>
          </mxGeometry>
        </mxCell>
        <mxCell id="bYny6pc4v_U9MV29wEx--31" value="" style="endArrow=none;dashed=1;html=1;strokeWidth=2;" parent="1" edge="1">
          <mxGeometry width="50" height="50" relative="1" as="geometry">
            <mxPoint x="360" y="205" as="sourcePoint" />
            <mxPoint x="360" y="455" as="targetPoint" />
            <Array as="points">
              <mxPoint x="360" y="329" />
            </Array>
          </mxGeometry>
        </mxCell>
        <mxCell id="bYny6pc4v_U9MV29wEx--32" value="" style="endArrow=none;dashed=1;html=1;strokeWidth=2;" parent="1" edge="1">
          <mxGeometry width="50" height="50" relative="1" as="geometry">
            <mxPoint x="360" y="450" as="sourcePoint" />
            <mxPoint x="560" y="450" as="targetPoint" />
          </mxGeometry>
        </mxCell>
        <mxCell id="bYny6pc4v_U9MV29wEx--33" value="" style="endArrow=classic;html=1;fontSize=13;strokeWidth=2;exitX=0.5;exitY=1;exitDx=0;exitDy=0;" parent="1" source="bYny6pc4v_U9MV29wEx--24" edge="1">
          <mxGeometry width="50" height="50" relative="1" as="geometry">
            <mxPoint x="390" y="440" as="sourcePoint" />
            <mxPoint x="460" y="470" as="targetPoint" />
          </mxGeometry>
        </mxCell>
        <mxCell id="bYny6pc4v_U9MV29wEx--34" value="Anotated&lt;br&gt;Corpus" style="shape=document;whiteSpace=wrap;html=1;boundedLbl=1;fontSize=13;strokeWidth=2;" parent="1" vertex="1">
          <mxGeometry x="400" y="470" width="120" height="80" as="geometry" />
        </mxCell>
        <mxCell id="bYny6pc4v_U9MV29wEx--35" value="" style="endArrow=classic;html=1;fontSize=13;strokeWidth=2;exitX=0.5;exitY=1;exitDx=0;exitDy=0;exitPerimeter=0;" parent="1" source="bYny6pc4v_U9MV29wEx--15" edge="1">
          <mxGeometry width="50" height="50" relative="1" as="geometry">
            <mxPoint x="390" y="440" as="sourcePoint" />
            <mxPoint x="680" y="330" as="targetPoint" />
            <Array as="points">
              <mxPoint x="251" y="580" />
              <mxPoint x="430" y="580" />
              <mxPoint x="600" y="580" />
              <mxPoint x="600" y="330" />
            </Array>
          </mxGeometry>
        </mxCell>
        <mxCell id="bYny6pc4v_U9MV29wEx--38" value="" style="endArrow=none;html=1;fontSize=13;strokeWidth=2;exitX=1.017;exitY=0.413;exitDx=0;exitDy=0;exitPerimeter=0;" parent="1" source="bYny6pc4v_U9MV29wEx--34" edge="1">
          <mxGeometry width="50" height="50" relative="1" as="geometry">
            <mxPoint x="390" y="440" as="sourcePoint" />
            <mxPoint x="600" y="503" as="targetPoint" />
          </mxGeometry>
        </mxCell>
        <mxCell id="bYny6pc4v_U9MV29wEx--39" value="Algorithm" style="rounded=1;whiteSpace=wrap;html=1;fontSize=13;strokeWidth=2;" parent="1" vertex="1">
          <mxGeometry x="680" y="300" width="120" height="60" as="geometry" />
        </mxCell>
        <mxCell id="bYny6pc4v_U9MV29wEx--40" value="" style="endArrow=classic;html=1;fontSize=13;strokeWidth=2;exitX=0.5;exitY=1;exitDx=0;exitDy=0;" parent="1" source="bYny6pc4v_U9MV29wEx--39" edge="1">
          <mxGeometry width="50" height="50" relative="1" as="geometry">
            <mxPoint x="390" y="440" as="sourcePoint" />
            <mxPoint x="740" y="460" as="targetPoint" />
          </mxGeometry>
        </mxCell>
        <mxCell id="bYny6pc4v_U9MV29wEx--41" value="Temporal Instance" style="ellipse;whiteSpace=wrap;html=1;fontSize=13;strokeWidth=2;" parent="1" vertex="1">
          <mxGeometry x="680" y="460" width="120" height="80" as="geometry" />
        </mxCell>
        <mxCell id="QRoClXR-xrOjZPFW-zB3-1" value="" style="endArrow=none;html=1;entryX=0.492;entryY=0.85;entryDx=0;entryDy=0;entryPerimeter=0;strokeWidth=2;" edge="1" parent="1" target="bYny6pc4v_U9MV29wEx--4">
          <mxGeometry width="50" height="50" relative="1" as="geometry">
            <mxPoint x="310" y="580" as="sourcePoint" />
            <mxPoint x="440" y="390" as="targetPoint" />
            <Array as="points">
              <mxPoint x="69" y="580" />
            </Array>
          </mxGeometry>
        </mxCell>
      </root>
    </mxGraphModel>
  </diagram>
</mxfile>
